HIERARCHY
ROOT pelvis
{
  OFFSET 0 100 0
  CHANNELS 6 Xposition Yposition Zposition Zrotation Xrotation Yrotation
  JOINT pelvis_right_femur
  {
    OFFSET -10.78128 -3.44521 -0.5502486
    CHANNELS 3 Zrotation Xrotation Yrotation
    JOINT right_femur_tibia
    {
      OFFSET -0.8047443 -44.0398 -0.1307829
      CHANNELS 3 Zrotation Xrotation Yrotation
      JOINT right_tibia_foot
      {
        OFFSET 3.006224 -47.83518 -5
        CHANNELS 3 Zrotation Xrotation Yrotation
        End Site
        {
          OFFSET 0 -5 15
        }
      }
    }
  }
  JOINT pelvis_left_femur
  {
    OFFSET 10.78128 -3.44521 -0.5502486
    CHANNELS 3 Zrotation Xrotation Yrotation
    JOINT left_femur_tibia
    {
      OFFSET 0.8047443 -44.0398 -0.1307829
      CHANNELS 3 Zrotation Xrotation Yrotation
      JOINT left_tibia_foot
      {
        OFFSET -4.370144 -48.10324 -4.275266
        CHANNELS 3 Zrotation Xrotation Yrotation
        End Site
        {
          OFFSET 0 -5 15
        }
      }
    }
  }
  JOINT pelvis_spine1
  {
    OFFSET 0 6.468898 -3.129235
    CHANNELS 3 Zrotation Xrotation Yrotation
    JOINT spine1
    {
      OFFSET 0 23.15396 4.99043
      CHANNELS 3 Zrotation Xrotation Yrotation
      JOINT spine2
      {
        OFFSET 0 20.79997 -5.064912
        CHANNELS 3 Zrotation Xrotation Yrotation
        JOINT neck
        {
          OFFSET 0 14.38658 9.616178
          CHANNELS 3 Zrotation Xrotation Yrotation
          End Site
          {
            OFFSET 0 20 0
          }
        }
      }
      JOINT right_manubrium
      {
        OFFSET -5.722621 16.35077 3.967754
        CHANNELS 3 Zrotation Xrotation Yrotation
        JOINT right_clavicle
        {
          OFFSET -13.16364 1.694482 -4.693211
          CHANNELS 3 Zrotation Xrotation Yrotation
          JOINT right_humerus
          {
            OFFSET -28.5034 -0.3100689 -2.792744
            CHANNELS 3 Zrotation Xrotation Yrotation
            JOINT right_radius
            {
              OFFSET -25.15693 0.02248979 -1.271978
              CHANNELS 3 Zrotation Xrotation Yrotation
              End Site
              {
                OFFSET -15 0 0
              }
            }
          }
        }
      }
      JOINT left_manubrium
      {
        OFFSET 5.722621 16.35077 3.967754
        CHANNELS 3 Zrotation Xrotation Yrotation
        JOINT left_clavicle
        {
          OFFSET 13.16364 1.694482 -4.693211
          CHANNELS 3 Zrotation Xrotation Yrotation
          JOINT left_humerus
          {
            OFFSET 29.39168 -1.063119 -2.237045
            CHANNELS 3 Zrotation Xrotation Yrotation
            JOINT left_radius
            {
              OFFSET 24.59957 -0.9528479 0.9047498
              CHANNELS 3 Zrotation Xrotation Yrotation
              End Site
              {
                OFFSET 15 -0 -0
              }
            }
          }
        }
      }
    }
  }
}
MOTION
Frames: 16
Frame Time: 0.0416666666667
17.97486 103.2567 237.8514 0.2264604 -6.156173 -0.9337139 3.062668 11.4122 3.873502 2.514868e-10 26.78063 -3.496705e-11 -3.899499 -10.25848 -1.731244 -1.018283 -18.60231 -7.574119 1.183153e-10 25.17371 -6.86078e-10 -2.651475 -7.622694 19.53495 -1.252267 -0.9080551 7.144923 -0.2668561 10.50218 -4.060197 1.655444 21.93968 5.592705 2.457914 -18.66865 6.952173 1.923685 -21.70269 11.80533 82.2849 25.31399 -7.869027 2.523164e-11 3.888743e-11 21.74444 -22.92569 12.4566 13.19182 4.713794 -17.87374 -2.263969 -93.98455 19.51672 25.79156 -3.131174e-11 -1.709573e-12 -7.927877 2.265827 11.80097 9.737109
18.65072 103.3286 243.3635 0.1651128 -5.983225 -1.308536 3.144662 9.45702 3.821009 2.274159e-10 26.77964 -3.016648e-11 -4.022434 -9.955404 -1.909756 -1.356977 -16.86064 -8.018566 1.059472e-10 25.08278 -6.240944e-10 -2.519629 -8.236858 19.44446 -1.296364 -0.9509198 6.933634 -0.1336013 10.50203 -4.313277 1.644579 22.05237 5.69362 2.503599 -18.89753 7.069755 2.033698 -21.48195 11.83459 83.09051 25.63992 -8.775628 2.297443e-11 3.545634e-11 21.19731 -22.62238 12.46918 12.93201 4.857811 -18.22342 -2.31231 -94.07788 19.73051 25.22279 -2.825233e-11 -1.521343e-12 -8.728085 2.481478 11.99746 9.564001
19.20924 103.4025 248.8255 0.09627818 -5.665688 -1.625834 3.27902 6.003816 3.73044 1.846352e-10 26.72393 -2.157412e-11 -4.227276 -9.402403 -2.216757 -1.908332 -13.76363 -8.75228 8.403115e-11 24.87252 -5.139954e-10 -2.28813 -9.29898 19.25041 -1.371716 -1.023746 6.548525 0.09978133 10.47931 -4.748903 1.62391 22.20568 5.859502 2.577287 -19.2616 7.261216 2.217246 -21.05151 11.85871 84.34329 26.15715 -10.32435 1.889303e-11 2.940229e-11 20.19369 -22.04053 12.46829 12.44432 5.101223 -18.80094 -2.392086 -94.04092 20.1174 24.15005 -2.282176e-11 -1.295418e-12 -10.11586 2.859001 12.31651 9.238979
19.62997 103.4717 254.1841 0.02786848 -5.21986 -1.865511 3.424524 1.530456 3.605486 1.284405e-10 26.47638 -1.024894e-11 -4.456118 -8.629853 -2.590374 -2.533125 -9.691696 -9.586631 5.543991e-11 24.43878 -3.693507e-10 -1.992005 -10.6012 18.88127 -1.46055 -1.109267 6.010971 0.3951423 10.37888 -5.275928 1.593652 22.25575 6.033696 2.647194 -19.60309 7.454793 2.42173 -20.3624 11.80216 85.37051 26.69696 -12.13146 1.339326e-11 2.152397e-11 18.77231 -21.13786 12.39381 11.72023 5.381175 -19.41829 -2.480894 -93.33261 20.63377 22.52693 -1.570352e-11 -1.201176e-12 -11.83071 3.334324 12.64057 8.758699
19.90685 103.5297 259.4094 -0.03489984 -4.704478 -2.016258 3.570994 -3.495561 3.472706 6.517868e-11 26.12498 2.189591e-12 -4.693624 -7.737537 -2.997259 -3.152467 -5.087858 -10.44557 2.458624e-11 23.88405 -2.06688e-10 -1.66828 -12.03597 18.42263 -1.557364 -1.201015 5.390778 0.7228077 10.23449 -5.851648 1.558403 22.24991 6.212313 2.715627 -19.93229 7.649857 2.638416 -19.53359 11.70047 86.29859 27.23799 -14.08845 6.949346e-12 1.277475e-11 17.12476 -20.06345 12.26879 10.87018 5.680947 -20.05755 -2.572807 -92.25321 21.19463 20.58859 -7.681993e-12 -1.348512e-12 -13.72269 3.86507 12.96417 8.192331
20.05268 103.5721 264.4855 -0.08661595 -4.19163 -2.080255 3.691542 -8.306823 3.346531 4.452021e-12 25.68752 1.368335e-11 -4.89651 -6.850616 -3.371052 -3.670955 -0.6454135 -11.19126 -3.441654e-12 23.26003 -5.061554e-11 -1.368832 -13.36972 17.91855 -1.645499 -1.283254 4.774759 1.030742 10.05408 -6.380121 1.523347 22.15868 6.35951 2.765959 -20.17248 7.804881 2.828953 -18.66491 11.55183 86.85274 27.69352 -15.84842 4.972478e-13 4.496239e-12 15.47777 -18.9525 12.09458 10.00699 5.947599 -20.59421 -2.651951 -90.82879 21.69677 18.5728 2.750731e-14 -1.733799e-12 -15.48597 4.36653 13.2195 7.615339
20.07846 103.6022 269.3887 -0.1299701 -3.671798 -2.06007 3.781736 -12.92618 3.215818 -5.410751e-11 25.12375 2.41424e-11 -5.059726 -5.953472 -3.71011 -4.104379 3.665891 -11.82752 -2.859594e-11 22.52862 9.997842e-11 -1.093444 -14.59286 17.33684 -1.723135 -1.354777 4.151641 1.318491 9.82253 -6.855426 1.48813 21.94933 6.466839 2.791454 -20.29671 7.90787 2.989279 -17.72377 11.33789 86.88461 28.07326 -17.36458 -5.995537e-12 -3.377693e-12 13.7971 -17.76924 11.85327 9.108887 6.174722 -21.00208 -2.717694 -88.90677 22.119 16.40989 7.47755e-12 -2.318123e-12 -17.11093 4.835944 13.38921 7.014382
20.00479 103.6183 274.1458 -0.1645199 -3.217706 -1.965362 3.863943 -17.02799 3.113644 -1.056937e-10 24.66088 3.290081e-11 -5.207022 -5.167866 -4.013064 -4.456916 7.485071 -12.39163 -4.912929e-11 21.9139 2.324475e-10 -0.8575786 -15.69783 16.85165 -1.794821 -1.419322 3.606552 1.573842 9.629756 -7.284407 1.457721 21.79533 6.570817 2.82052 -20.43485 8.011585 3.140515 -16.9168 11.16502 87.07293 28.4207 -18.76942 -1.193932e-11 -1.019174e-11 12.33089 -16.75417 11.64029 8.335218 6.384057 -21.39273 -2.776777 -87.33628 22.44885 14.52017 1.404906e-11 -3.016222e-12 -18.57158 5.258651 13.55481 6.490979
19.84683 103.6268 278.7493 -0.192967 -2.790009 -1.803408 3.916484 -20.69214 3.009286 -1.519452e-10 24.13031 4.014684e-11 -5.31394 -4.429376 -4.268643 -4.735435 10.93244 -12.84395 -6.590488e-11 21.25702 3.513932e-10 -0.6570474 -16.63818 16.33612 -1.852987 -1.471102 3.093864 1.795346 9.410684 -7.641326 1.429423 21.55862 6.635909 2.827343 -20.4717 8.066563 3.258895 -16.10873 10.95346 86.82448 28.70129 -19.8789 -1.746773e-11 -1.622209e-11 10.94017 -15.75407 11.38861 7.589724 6.547499 -21.6541 -2.822294 -85.48457 22.67275 12.6453 1.995654e-11 -3.769607e-12 -19.82102 5.625064 13.64175 5.986464
19.62688 103.6263 283.2266 -0.2140992 -2.442557 -1.587092 3.954753 -23.65192 2.925812 -1.891745e-10 23.689 4.561739e-11 -5.39565 -3.828645 -4.472595 -4.942796 13.72145 -13.20124 -7.831226e-11 20.71471 4.471341e-10 -0.5011442 -17.39421 15.91195 -1.89963 -1.511987 2.676903 1.972585 9.22788 -7.926112 1.40665 21.35662 6.685336 2.830774 -20.49205 8.106871 3.354667 -15.44678 10.77605 86.58688 28.92908 -20.76332 -2.205125e-11 -2.100555e-11 9.808016 -14.93894 11.17074 6.984983 6.676983 -21.85577 -2.85788 -83.93926 22.81071 11.10003 2.471773e-11 -4.470303e-12 -20.82423 5.920336 13.70351 5.574597
19.37181 103.6159 287.6319 -0.2264923 -2.213917 -1.333242 3.994836 -25.73678 2.882834 -2.150744e-10 23.45943 4.944413e-11 -5.466627 -3.430411 -4.624764 -5.08509 15.66253 -13.48213 -8.672392e-11 20.4075 5.135372e-10 -0.391846 -17.96148 15.67328 -1.937138 -1.544267 2.401014 2.100552 9.130086 -8.144 1.391722 21.28312 6.739273 2.846698 -20.56641 8.161521 3.435614 -15.04146 10.68958 86.72714 29.1071 -21.49565 -2.528675e-11 -2.428005e-11 9.066758 -14.43304 11.0485 6.600688 6.78462 -22.05882 -2.886743 -83.1593 22.91781 10.12544 2.801881e-11 -5.023474e-12 -21.56927 6.137809 13.78619 5.30883
19.11678 103.5915 292.0517 -0.2260383 -2.157974 -1.064803 4.052432 -26.64925 2.905299 -2.257515e-10 23.58573 5.158006e-11 -5.538322 -3.325926 -4.716425 -5.158206 16.44597 -13.68907 -9.109978e-11 20.48173 5.40361e-10 -0.3369253 -18.30417 15.73499 -1.96606 -1.568599 2.33001 2.166941 9.17486 -8.288726 1.387802 21.44288 6.816501 2.891608 -20.76642 8.258889 3.505506 -15.03364 10.75979 87.63412 29.22214 -22.11568 -2.657017e-11 -2.558385e-11 8.89918 -14.39732 11.09498 6.543183 6.877559 -22.31774 -2.910405 -83.67879 23.05001 10.03325 2.934151e-11 -5.307336e-12 -22.00247 6.258678 13.93463 5.260809
18.89744 103.5547 296.5362 -0.2099507 -2.254079 -0.8059893 4.086337 -26.20753 2.957131 -2.19578e-10 23.87722 5.129583e-11 -5.567368 -3.485138 -4.711392 -5.144536 15.96382 -13.7196 -9.019411e-11 20.77028 5.23956e-10 -0.3513806 -18.28484 15.96306 -1.971407 -1.572795 2.441739 2.151188 9.289607 -8.295553 1.393541 21.664 6.862567 2.929055 -20.92997 8.326122 3.525624 -15.30099 10.89428 88.50721 29.2231 -22.28076 -2.572294e-11 -2.476962e-11 9.224174 -14.70336 11.22873 6.743231 6.903827 -22.45681 -2.916249 -84.76727 23.11573 10.60045 2.851655e-11 -5.211696e-12 -21.95935 6.239614 14.0378 5.390541
18.75137 103.5046 301.1413 -0.1758854 -2.516854 -0.5829589 4.094174 -24.299 3.041295 -1.950316e-10 24.35953 4.822099e-11 -5.551916 -3.933727 -4.602974 -5.036828 14.10721 -13.56335 -8.310016e-11 21.30192 4.60413e-10 -0.4430722 -17.87909 16.37959 -1.951921 -1.555674 2.754017 2.046523 9.484709 -8.155242 1.41002 21.96164 6.877594 2.960162 -21.06283 8.364414 3.495285 -15.87541 11.10437 89.38774 29.1131 -21.96883 -2.259347e-11 -2.162454e-11 10.09095 -15.39123 11.45822 7.2304 6.860237 -22.47494 -2.903717 -86.51801 23.08782 11.89409 2.535635e-11 -4.720749e-12 -21.40589 6.069885 14.09728 5.716873
18.71307 103.4456 305.885 -0.1237552 -2.916365 -0.4213826 4.038506 -20.84354 3.127045 -1.515474e-10 24.84025 4.149315e-11 -5.450723 -4.624801 -4.361797 -4.801787 10.86057 -13.13395 -6.790388e-11 21.90332 3.487421e-10 -0.6285113 -16.98293 16.84776 -1.895458 -1.506525 3.23328 1.837565 9.685271 -7.814848 1.436252 22.1683 6.811627 2.949994 -21.01367 8.305978 3.381387 -16.62248 11.29632 89.5299 28.86263 -20.88874 -1.727897e-11 -1.604531e-11 11.38886 -16.31759 11.69235 7.923329 6.70199 -22.21351 -2.861567 -88.19255 22.86863 13.64015 1.9822e-11 -3.872954e-12 -20.21838 5.719645 14.00808 6.188779
18.7972 103.3867 310.7627 -0.06355496 -3.37734 -0.3349526 3.936905 -16.53452 3.209802 -9.768646e-11 25.24795 3.234193e-11 -5.285736 -5.426795 -4.037246 -4.462635 6.869253 -12.5221 -4.701576e-11 22.47681 2.107687e-10 -0.8737934 -15.78785 17.2952 -1.815196 -1.435839 3.788776 1.566586 9.859344 -7.347639 1.467438 22.26364 6.683759 2.905197 -20.81074 8.170873 3.210393 -17.41126 11.44215 89.01459 28.51191 -19.2971 -1.093751e-11 -9.049179e-12 12.87479 -17.31802 11.88944 8.696072 6.46603 -21.74393 -2.797993 -89.54588 22.50612 15.51648 1.298813e-11 -2.962395e-12 -18.64687 5.264063 13.79818 6.717392
